<svg width="50" height="50" viewBox="0 0 50 50" fill="none" xmlns="http://www.w3.org/2000/svg">
<path fill-rule="evenodd" clip-rule="evenodd" d="M48.4 17.8C48.4 20.451 46.251 22.6 43.6 22.6C41.3635 22.6 39.4841 21.0703 38.9513 19H32.2497C31.0765 19 30.0752 19.8482 29.8823 21.0054L29.6851 22.1891C29.4977 23.313 28.9292 24.2911 28.1253 25C28.9292 25.7089 29.4977 26.687 29.6851 27.8109L29.8823 28.9946C30.0752 30.1518 31.0765 31 32.2497 31H34.1513C34.6841 28.9297 36.5635 27.4 38.8 27.4C41.451 27.4 43.6 29.549 43.6 32.2C43.6 34.851 41.451 37 38.8 37C36.5635 37 34.6841 35.4703 34.1513 33.4H32.2497C29.9033 33.4 27.9008 31.7036 27.515 29.3891L27.3177 28.2054C27.1249 27.0482 26.1236 26.2 24.9504 26.2H22.9927C22.3935 28.1681 20.564 29.6 18.4 29.6C16.2361 29.6 14.4066 28.1681 13.8074 26.2H10.9927C10.3935 28.1681 8.56397 29.6 6.40002 29.6C3.74906 29.6 1.60003 27.4509 1.60003 24.8C1.60003 22.149 3.74906 20 6.40002 20C8.70809 20 10.6357 21.629 11.0957 23.8H13.7044C14.1644 21.629 16.092 20 18.4 20C20.7081 20 22.6357 21.629 23.0957 23.8H24.9504C26.1236 23.8 27.1249 22.9518 27.3177 21.7946L27.515 20.6109C27.9008 18.2964 29.9033 16.6 32.2497 16.6H38.9513C39.4841 14.5297 41.3635 13 43.6 13C46.251 13 48.4 15.149 48.4 17.8ZM46 17.8C46 19.1255 44.9255 20.2 43.6 20.2C42.2746 20.2 41.2 19.1255 41.2 17.8C41.2 16.4745 42.2746 15.4 43.6 15.4C44.9255 15.4 46 16.4745 46 17.8ZM6.40002 27.2C7.72553 27.2 8.80001 26.1255 8.80001 24.8C8.80001 23.4745 7.72553 22.4 6.40002 22.4C5.07454 22.4 4.00002 23.4745 4.00002 24.8C4.00002 26.1255 5.07454 27.2 6.40002 27.2ZM18.4 27.2C19.7255 27.2 20.8 26.1255 20.8 24.8C20.8 23.4745 19.7255 22.4 18.4 22.4C17.0746 22.4 16 23.4745 16 24.8C16 26.1255 17.0746 27.2 18.4 27.2ZM38.8 34.6C40.1255 34.6 41.2 33.5255 41.2 32.2C41.2 30.8745 40.1255 29.8 38.8 29.8C37.4746 29.8 36.4 30.8745 36.4 32.2C36.4 33.5255 37.4746 34.6 38.8 34.6Z" fill="black"/>
</svg>
